<svg width="30" height="30" viewBox="0 0 30 30" fill="none" xmlns="http://www.w3.org/2000/svg">
<path d="M2.5 23.75V11.25C2.5 9.86929 3.61929 8.75 5 8.75H5.625C6.41189 8.75 7.15286 8.37951 7.625 7.75L10.4 4.05C10.5416 3.86115 10.7639 3.75 11 3.75H19C19.2361 3.75 19.4584 3.86115 19.6 4.05L22.375 7.75C22.8471 8.37951 23.5881 8.75 24.375 8.75H25C26.3807 8.75 27.5 9.86929 27.5 11.25V23.75C27.5 25.1307 26.3807 26.25 25 26.25H5C3.61929 26.25 2.5 25.1307 2.5 23.75Z" stroke="white" stroke-width="1.5" stroke-linecap="round" stroke-linejoin="round"/>
<path d="M15 21.25C17.7614 21.25 20 19.0114 20 16.25C20 13.4886 17.7614 11.25 15 11.25C12.2386 11.25 10 13.4886 10 16.25C10 19.0114 12.2386 21.25 15 21.25Z" stroke="white" stroke-width="1.5" stroke-linecap="round" stroke-linejoin="round"/>
</svg>
