<svg width="24" height="24" viewBox="0 0 24 24" fill="none" xmlns="http://www.w3.org/2000/svg">
<g clip-path="url(#clip0_120_239)">
<path d="M2.30353 8.38407C2.60712 8.59831 3.52228 9.23458 5.04903 10.2926C6.57583 11.3506 7.74547 12.1652 8.55799 12.7365C8.64725 12.7991 8.83691 12.9353 9.12704 13.1451C9.41722 13.355 9.65834 13.5247 9.85019 13.6541C10.0422 13.7835 10.2743 13.9286 10.5468 14.0893C10.8191 14.2498 11.0758 14.3706 11.3169 14.4505C11.558 14.5311 11.7812 14.571 11.9865 14.571H12H12.0135C12.2188 14.571 12.4421 14.5311 12.6832 14.4505C12.9242 14.3706 13.1812 14.2497 13.4533 14.0893C13.7256 13.9285 13.9577 13.7835 14.1497 13.6541C14.3417 13.5247 14.5826 13.355 14.8729 13.1451C15.163 12.9351 15.3528 12.7991 15.4421 12.7365C16.2634 12.1652 18.3529 10.7142 21.7099 8.38379C22.3616 7.92863 22.9062 7.37942 23.3436 6.73652C23.7814 6.09391 24 5.41978 24 4.7145C24 4.12513 23.7878 3.62063 23.3637 3.20102C22.9396 2.78133 22.4373 2.57159 21.8571 2.57159H2.14277C1.45531 2.57159 0.92627 2.8037 0.555734 3.26792C0.185245 3.73222 0 4.31258 0 5.00895C0 5.57144 0.245617 6.18098 0.736616 6.83719C1.22757 7.49345 1.75004 8.00913 2.30353 8.38407Z" fill="white"/>
<path d="M22.6605 9.81699C19.7323 11.7989 17.5088 13.3393 15.9911 14.4376C15.4822 14.8124 15.0693 15.1051 14.7523 15.3147C14.4352 15.5246 14.0136 15.7389 13.4867 15.9575C12.96 16.1765 12.4691 16.2856 12.0137 16.2856H12H11.9866C11.5312 16.2856 11.0401 16.1765 10.5134 15.9575C9.98669 15.7389 9.56474 15.5246 9.24778 15.3147C8.9309 15.1051 8.51791 14.8124 8.00904 14.4376C6.80362 13.5537 4.58491 12.0133 1.35281 9.81699C0.843756 9.47793 0.392865 9.08928 0 8.65186V19.2855C0 19.8751 0.209731 20.3793 0.629428 20.799C1.04903 21.2188 1.55359 21.4286 2.14291 21.4286H21.8573C22.4464 21.4286 22.9509 21.2188 23.3706 20.799C23.7904 20.3792 24 19.8752 24 19.2855V8.65186C23.616 9.08023 23.1697 9.46887 22.6605 9.81699Z" fill="white"/>
</g>
<defs>
<clipPath id="clip0_120_239">
<rect width="24" height="24" fill="white"/>
</clipPath>
</defs>
</svg>
