<svg width="24" height="20" viewBox="0 0 24 20" fill="none" xmlns="http://www.w3.org/2000/svg">
<path d="M2.30353 6.38407C2.60712 6.59831 3.52228 7.23458 5.04903 8.29257C6.57583 9.35056 7.74547 10.1652 8.55799 10.7365C8.64725 10.7991 8.83691 10.9353 9.12704 11.1451C9.41722 11.355 9.65834 11.5247 9.85019 11.6541C10.0422 11.7835 10.2743 11.9286 10.5468 12.0893C10.8191 12.2498 11.0758 12.3706 11.3169 12.4505C11.558 12.5311 11.7812 12.571 11.9865 12.571H12H12.0135C12.2188 12.571 12.4421 12.5311 12.6832 12.4505C12.9242 12.3706 13.1812 12.2497 13.4533 12.0893C13.7256 11.9285 13.9577 11.7835 14.1497 11.6541C14.3417 11.5247 14.5826 11.355 14.8729 11.1451C15.163 10.9351 15.3528 10.7991 15.4421 10.7365C16.2634 10.1652 18.3529 8.71424 21.7099 6.38379C22.3616 5.92863 22.9062 5.37942 23.3436 4.73652C23.7814 4.09391 24 3.41978 24 2.7145C24 2.12513 23.7878 1.62063 23.3637 1.20102C22.9396 0.781325 22.4373 0.571594 21.8571 0.571594H2.14277C1.45531 0.571594 0.92627 0.803701 0.555734 1.26792C0.185245 1.73222 0 2.31258 0 3.00895C0 3.57144 0.245617 4.18098 0.736616 4.83719C1.22757 5.49345 1.75004 6.00913 2.30353 6.38407Z" fill="white"/>
<path d="M22.6605 7.81699C19.7323 9.79895 17.5088 11.3393 15.9911 12.4376C15.4822 12.8124 15.0693 13.1051 14.7523 13.3147C14.4352 13.5246 14.0136 13.7389 13.4867 13.9575C12.96 14.1765 12.4691 14.2856 12.0137 14.2856H12H11.9866C11.5312 14.2856 11.0401 14.1765 10.5134 13.9575C9.98669 13.7389 9.56474 13.5246 9.24778 13.3147C8.9309 13.1051 8.51791 12.8124 8.00904 12.4376C6.80362 11.5537 4.58491 10.0133 1.35281 7.81699C0.843756 7.47793 0.392865 7.08928 0 6.65186V17.2855C0 17.8751 0.209731 18.3793 0.629428 18.799C1.04903 19.2188 1.55359 19.4286 2.14291 19.4286H21.8573C22.4464 19.4286 22.9509 19.2188 23.3706 18.799C23.7904 18.3792 24 17.8752 24 17.2855V6.65186C23.616 7.08023 23.1697 7.46887 22.6605 7.81699Z" fill="white"/>
</svg>
