<svg width="36" height="8" viewBox="0 0 36 8" fill="none" xmlns="http://www.w3.org/2000/svg">
<rect opacity="0.5" x="23" y="2" width="4" height="4" rx="2" fill="white"/>
<rect opacity="0.5" x="0.166748" y="2" width="4" height="4" rx="2" fill="white"/>
<path fill-rule="evenodd" clip-rule="evenodd" d="M14 0C11.7909 0 10 1.79086 10 4C10 6.20914 11.7909 8 14 8C16.2091 8 18 6.20914 18 4C18 1.79086 16.2091 0 14 0ZM14 2C12.8954 2 12 2.89543 12 4C12 5.10457 12.8954 6 14 6C15.1046 6 16 5.10457 16 4C16 2.89543 15.1046 2 14 2Z" fill="white"/>
<rect opacity="0.5" x="32" y="2" width="4" height="4" rx="2" fill="white"/>
</svg>
