<svg width="37" height="8" viewBox="0 0 37 8" fill="none" xmlns="http://www.w3.org/2000/svg">
<rect opacity="0.5" width="4" height="4" rx="2" transform="matrix(-1 0 0 1 13.3335 2)" fill="white"/>
<rect opacity="0.5" width="4" height="4" rx="2" transform="matrix(-1 0 0 1 23.1667 2)" fill="white"/>
<path fill-rule="evenodd" clip-rule="evenodd" d="M32.3335 0C34.5426 0 36.3335 1.79086 36.3335 4C36.3335 6.20914 34.5426 8 32.3335 8C30.1244 8 28.3335 6.20914 28.3335 4C28.3335 1.79086 30.1244 0 32.3335 0ZM32.3335 2C33.4381 2 34.3335 2.89543 34.3335 4C34.3335 5.10457 33.4381 6 32.3335 6C31.2289 6 30.3335 5.10457 30.3335 4C30.3335 2.89543 31.2289 2 32.3335 2Z" fill="white"/>
<rect opacity="0.5" width="4" height="4" rx="2" transform="matrix(-1 0 0 1 4.00024 2)" fill="white"/>
</svg>
