<svg width="35" height="8" viewBox="0 0 35 8" fill="none" xmlns="http://www.w3.org/2000/svg">
<rect opacity="0.5" y="2" width="4" height="4" rx="2" fill="white"/>
<rect opacity="0.5" x="9" y="2" width="4" height="4" rx="2" fill="white"/>
<path fill-rule="evenodd" clip-rule="evenodd" d="M22 0C19.7909 0 18 1.79086 18 4C18 6.20914 19.7909 8 22 8C24.2091 8 26 6.20914 26 4C26 1.79086 24.2091 0 22 0ZM22 2C20.8954 2 20 2.89543 20 4C20 5.10457 20.8954 6 22 6C23.1046 6 24 5.10457 24 4C24 2.89543 23.1046 2 22 2Z" fill="white"/>
<rect opacity="0.5" x="31" y="2" width="4" height="4" rx="2" fill="white"/>
</svg>
