<svg width="18" height="20" viewBox="0 0 18 20" fill="none" xmlns="http://www.w3.org/2000/svg">
<path d="M0.500341 11.9124V11.7079C0.535256 11.0531 0.741912 10.4187 1.0998 9.86772C1.69656 9.19909 2.10681 8.38691 2.28977 7.51192C2.33451 6.84518 2.28977 6.16066 2.33451 5.48503C2.65661 2.24024 5.86864 0 8.94646 0H9.03593C12.1674 0 15.2989 2.24024 15.6389 5.48503C15.7016 6.15177 15.6389 6.84518 15.6926 7.51192C15.8711 8.38844 16.2819 9.20171 16.8826 9.86772C17.256 10.4124 17.4698 11.0495 17.4999 11.7079V11.9124C17.5054 12.7993 17.1876 13.6582 16.6052 14.3304C15.8581 15.1274 14.8424 15.624 13.7511 15.7261C10.5642 16.135 7.33765 16.135 4.15078 15.7261C3.07213 15.6157 2.07058 15.1197 1.33243 14.3304C0.768287 13.6518 0.47246 12.7921 0.500341 11.9124Z" fill="#ED1D22"/>
<path opacity="0.4" d="M10.1632 17.0952C9.52798 17.0507 9.00905 17.0952 8.49011 17.0952C7.97546 17.0863 7.46165 17.14 6.96015 17.2552C6.53068 17.353 6.06543 17.5841 6.06543 18.073C6.11049 18.5456 6.36667 18.9731 6.76331 19.2376C7.52736 19.8211 8.4902 20.0858 9.44746 19.9755C10.3779 19.9069 11.2284 19.4273 11.7648 18.6687C12.0612 18.2844 11.9936 17.735 11.6127 17.433C11.1616 17.2125 10.6659 17.097 10.1632 17.0952Z" fill="#ED1D22"/>
</svg>
