<svg width="28" height="28" viewBox="0 0 28 28" fill="none" xmlns="http://www.w3.org/2000/svg">
<path fill-rule="evenodd" clip-rule="evenodd" d="M25.8093 15.75C26.7759 15.75 27.5595 14.9664 27.5595 13.9999C27.5593 13.0335 26.7757 12.2499 25.8093 12.2497L15.8923 12.2498L15.8922 2.33291C15.8922 1.36637 15.1087 0.582842 14.1421 0.582845C13.1757 0.582699 12.3921 1.36628 12.3921 2.33282L12.3922 12.2499L2.47501 12.2499C1.50845 12.2499 0.724923 13.0334 0.724937 14C0.724918 14.9665 1.50844 15.7501 2.475 15.75L12.392 15.7501L12.392 25.6671C12.392 26.6336 13.1756 27.4172 14.1421 27.4172C15.1087 27.4172 15.8922 26.6337 15.8922 25.6671L15.8923 15.75L25.8093 15.75Z" fill="#86C33C"/>
</svg>
