<svg width="29" height="29" viewBox="0 0 29 29" fill="none" xmlns="http://www.w3.org/2000/svg">
<path fill-rule="evenodd" clip-rule="evenodd" d="M24.3036 27.8394C25.28 28.8158 26.8631 28.8158 27.8395 27.8394C28.8155 26.863 28.8155 25.2799 27.8395 24.3036L17.8217 14.2857L27.8391 4.26802C28.8155 3.29167 28.8155 1.7087 27.8391 0.732317C26.8631 -0.244028 25.28 -0.244028 24.3036 0.732317L14.2858 10.7503L4.26801 0.732284C3.29164 -0.244095 1.70866 -0.244095 0.732317 0.732284C-0.244061 1.70863 -0.244061 3.2916 0.732317 4.26798L10.75 14.2857L0.732284 24.3036C-0.244095 25.2799 -0.244095 26.863 0.732284 27.8394C1.70863 28.8158 3.2916 28.8158 4.26798 27.8394L14.2858 17.8216L24.3036 27.8394Z" fill="white"/>
</svg>
