<svg width="56" height="56" viewBox="0 0 56 56" fill="none" xmlns="http://www.w3.org/2000/svg">
<circle cx="28" cy="28" r="28" fill="white"/>
<g clip-path="url(#clip0_120_1001)">
<path d="M35.8383 18H33.0391C32.7155 18 32.4531 18.2623 32.4531 18.5859C32.4531 18.9095 32.7155 19.1719 33.0391 19.1719H35.8383C36.3841 19.1719 36.8281 19.6159 36.8281 20.1618V22.9609C36.8281 23.2845 37.0905 23.5469 37.4141 23.5469C37.7377 23.5469 38 23.2845 38 22.9609V20.1618C38 18.9698 37.0302 18 35.8383 18V18Z" fill="#86C33C"/>
<path d="M18.5859 23.5469C18.9095 23.5469 19.1719 23.2845 19.1719 22.9609V20.1618C19.1719 19.6159 19.6159 19.1719 20.1617 19.1719H22.9609C23.2845 19.1719 23.5469 18.9095 23.5469 18.5859C23.5469 18.2623 23.2845 18 22.9609 18H20.1617C18.9698 18 18 18.9698 18 20.1618V22.9609C18 23.2845 18.2623 23.5469 18.5859 23.5469Z" fill="#86C33C"/>
<path d="M22.9609 36.8281H20.1617C19.6159 36.8281 19.1719 36.3841 19.1719 35.8382V33.0391C19.1719 32.7155 18.9095 32.4531 18.5859 32.4531C18.2623 32.4531 18 32.7155 18 33.0391V35.8382C18 37.0302 18.9698 38 20.1617 38H22.9609C23.2845 38 23.5469 37.7377 23.5469 37.4141C23.5469 37.0905 23.2845 36.8281 22.9609 36.8281Z" fill="#86C33C"/>
<path d="M37.4141 32.4531C37.0905 32.4531 36.8281 32.7155 36.8281 33.0391V35.8382C36.8281 36.3841 36.3841 36.8281 35.8383 36.8281H33.0391C32.7155 36.8281 32.4531 37.0905 32.4531 37.4141C32.4531 37.7377 32.7155 38 33.0391 38H35.8383C37.0303 38 38 37.0302 38 35.8382V33.0391C38 32.7155 37.7377 32.4531 37.4141 32.4531Z" fill="#86C33C"/>
<path d="M31.3453 22.2969H33.2037C33.4575 22.2969 33.664 22.5033 33.664 22.7571V24.6155C33.664 24.9391 33.9263 25.2014 34.2499 25.2014C34.5735 25.2014 34.8358 24.9391 34.8358 24.6155V22.7571C34.8358 21.8571 34.1037 21.125 33.2037 21.125H31.3453C31.0217 21.125 30.7594 21.3873 30.7594 21.7109C30.7594 22.0345 31.0217 22.2969 31.3453 22.2969Z" fill="#86C33C"/>
<path d="M21.1641 22.7571V24.6155C21.1641 24.9391 21.4264 25.2014 21.75 25.2014C22.0736 25.2014 22.3359 24.9391 22.3359 24.6155V22.7571C22.3359 22.5033 22.5424 22.2969 22.7962 22.2969H24.6546C24.9782 22.2969 25.2405 22.0345 25.2405 21.7109C25.2405 21.3873 24.9782 21.125 24.6546 21.125H22.7962C21.8962 21.125 21.1641 21.8571 21.1641 22.7571Z" fill="#86C33C"/>
<path d="M24.6546 33.625H22.7962C22.5424 33.625 22.3359 33.4185 22.3359 33.1648V31.3064C22.3359 30.9828 22.0736 30.7205 21.75 30.7205C21.4264 30.7205 21.1641 30.9828 21.1641 31.3064V33.1648C21.1641 34.0647 21.8962 34.7969 22.7962 34.7969H24.6546C24.9782 34.7969 25.2405 34.5345 25.2405 34.2109C25.2405 33.8873 24.9782 33.625 24.6546 33.625Z" fill="#86C33C"/>
<path d="M34.8358 33.1648V31.3064C34.8358 30.9828 34.5735 30.7205 34.2499 30.7205C33.9263 30.7205 33.664 30.9828 33.664 31.3064V33.1648C33.664 33.4185 33.4575 33.625 33.2037 33.625H31.3453C31.0217 33.625 30.7594 33.8873 30.7594 34.2109C30.7594 34.5345 31.0217 34.7969 31.3453 34.7969H33.2037C34.1037 34.7969 34.8358 34.0647 34.8358 33.1648Z" fill="#86C33C"/>
<path d="M18.0391 28C18.0391 28.3236 18.3014 28.5859 18.625 28.5859H37.375C37.6986 28.5859 37.9609 28.3236 37.9609 28C37.9609 27.6764 37.6986 27.4141 37.375 27.4141H18.625C18.3014 27.4141 18.0391 27.6764 18.0391 28Z" fill="#86C33C"/>
</g>
<defs>
<clipPath id="clip0_120_1001">
<rect width="20" height="20" fill="white" transform="translate(18 18)"/>
</clipPath>
</defs>
</svg>
