<svg width="75" height="49" viewBox="0 0 75 49" fill="none" xmlns="http://www.w3.org/2000/svg">
<path d="M35 34V26.6C35 26.0399 35 25.7599 35.109 25.546C35.2049 25.3578 35.3579 25.2049 35.546 25.109C35.7599 25 36.04 25 36.6 25H39.4C39.9601 25 40.2401 25 40.454 25.109C40.6422 25.2049 40.7951 25.3578 40.891 25.546C41 25.7599 41 26.0399 41 26.6V34M28 22.5L37.04 15.72C37.3843 15.4618 37.5564 15.3327 37.7454 15.2829C37.9123 15.239 38.0877 15.239 38.2546 15.2829C38.4436 15.3327 38.6157 15.4618 38.96 15.72L48 22.5M30 21V30.8C30 31.9201 30 32.4802 30.218 32.908C30.4097 33.2843 30.7157 33.5903 31.092 33.782C31.5198 34 32.0799 34 33.2 34H42.8C43.9201 34 44.4802 34 44.908 33.782C45.2843 33.5903 45.5903 33.2843 45.782 32.908C46 32.4802 46 31.9201 46 30.8V21L39.92 16.44C39.2315 15.9236 38.8872 15.6654 38.5091 15.5659C38.1754 15.478 37.8246 15.478 37.4909 15.5659C37.1128 15.6654 36.7685 15.9236 36.08 16.44L30 21Z" stroke="white" stroke-width="1.7" stroke-linecap="round" stroke-linejoin="round"/>
</svg>
