<svg width="75" height="49" viewBox="0 0 75 49" fill="none" xmlns="http://www.w3.org/2000/svg">
<path d="M41.5 24.5H40.5L39 27.5L37 21.5L35.5 24.5H34.5M37.9932 18.1358C35.9938 15.7984 32.6597 15.1696 30.1547 17.31C27.6496 19.4504 27.297 23.029 29.2642 25.5604C30.7501 27.4724 34.9713 31.311 36.948 33.0749C37.3114 33.3991 37.4931 33.5613 37.7058 33.6251C37.8905 33.6805 38.0958 33.6805 38.2805 33.6251C38.4932 33.5613 38.6749 33.3991 39.0383 33.0749C41.015 31.311 45.2362 27.4724 46.7221 25.5604C48.6893 23.029 48.3797 19.4279 45.8316 17.31C43.2835 15.1922 39.9925 15.7984 37.9932 18.1358Z" stroke="white" stroke-width="1.7" stroke-linecap="round" stroke-linejoin="round"/>
</svg>
