<svg width="75" height="49" viewBox="0 0 75 49" fill="none" xmlns="http://www.w3.org/2000/svg">
<path d="M47 31L45.9999 32.094C45.4695 32.6741 44.7501 33 44.0001 33C43.2501 33 42.5308 32.6741 42.0004 32.094C41.4692 31.5151 40.75 31.1901 40.0002 31.1901C39.2504 31.1901 38.5311 31.5151 38 32.094M29 33H30.6745C31.1637 33 31.4083 33 31.6385 32.9447C31.8426 32.8957 32.0377 32.8149 32.2166 32.7053C32.4184 32.5816 32.5914 32.4086 32.9373 32.0627L45.5 19.5C46.3285 18.6716 46.3285 17.3284 45.5 16.5C44.6716 15.6716 43.3285 15.6716 42.5 16.5L29.9373 29.0627C29.5914 29.4086 29.4184 29.5816 29.2947 29.7834C29.1851 29.9624 29.1043 30.1574 29.0553 30.3615C29 30.5917 29 30.8363 29 31.3255V33Z" stroke="white" stroke-width="1.7" stroke-linecap="round" stroke-linejoin="round"/>
</svg>
