<svg width="75" height="49" viewBox="0 0 75 49" fill="none" xmlns="http://www.w3.org/2000/svg">
<path d="M38 28C34.8299 28 32.0108 29.5306 30.216 31.906C29.8297 32.4172 29.6365 32.6728 29.6429 33.0183C29.6477 33.2852 29.8153 33.6219 30.0253 33.7867C30.2972 34 30.6738 34 31.4272 34H44.5727C45.3261 34 45.7028 34 45.9746 33.7867C46.1846 33.6219 46.3522 33.2852 46.3571 33.0183C46.3634 32.6728 46.1703 32.4172 45.784 31.906C43.9892 29.5306 41.17 28 38 28Z" stroke="white" stroke-width="1.7" stroke-linecap="round" stroke-linejoin="round"/>
<path d="M38 25C40.4853 25 42.5 22.9853 42.5 20.5C42.5 18.0147 40.4853 16 38 16C35.5147 16 33.5 18.0147 33.5 20.5C33.5 22.9853 35.5147 25 38 25Z" stroke="white" stroke-width="1.7" stroke-linecap="round" stroke-linejoin="round"/>
</svg>
